static_01
version=1
nRows=11
nColumns=46
inDegrees=yes
endheader
time	ground_force3_vx	ground_force3_vy	ground_force3_vz	ground_force3_px	ground_force3_py	ground_force3_pz	ground_torque3_x	ground_torque3_y	ground_torque3_z	ground_force5_vx	ground_force5_vy	ground_force5_vz	ground_force5_px	ground_force5_py	ground_force5_pz	ground_torque5_x	ground_torque5_y	ground_torque5_z	ground_force4_vx	ground_force4_vy	ground_force4_vz	ground_force4_px	ground_force4_py	ground_force4_pz	ground_torque4_x	ground_torque4_y	ground_torque4_z	ground_force1_vx	ground_force1_vy	ground_force1_vz	ground_force1_px	ground_force1_py	ground_force1_pz	ground_torque1_x	ground_torque1_y	ground_torque1_z	ground_force2_vx	ground_force2_vy	ground_force2_vz	ground_force2_px	ground_force2_py	ground_force2_pz	ground_torque2_x	ground_torque2_y	ground_torque2_z
1.863500	-0.000000	-0.000000	0.000000	0.200000	0.000000	-0.300000	0.000000	0.000000	-0.000000	0.938249	509.241058	65.394012	0.209649	0.000000	-1.398101	-0.000003	-1.721445	0.000004	-0.323140	453.583313	-61.152752	0.215669	0.000000	-0.967630	0.000004	1.619284	0.000002	-0.000000	-0.000000	0.000000	0.200000	0.000000	0.920000	0.000000	0.000000	-0.000000	-0.000000	-0.000000	0.000000	0.200000	0.000000	0.320000	0.000000	0.000000	-0.000000	
1.864000	-0.000000	-0.000000	0.000000	0.200000	0.000000	-0.300000	0.000000	0.000000	-0.000000	1.341026	508.761902	65.393845	0.209584	0.000000	-1.397811	0.000003	-1.743473	0.000002	-0.647542	453.423340	-61.315834	0.215602	0.000000	-0.967468	0.000028	1.529566	0.000005	-0.000000	-0.000000	0.000000	0.200000	0.000000	0.920000	0.000000	0.000000	-0.000000	-0.000000	-0.000000	0.000000	0.200000	0.000000	0.320000	0.000000	0.000000	-0.000000	
1.864500	-0.000000	-0.000000	0.000000	0.200000	0.000000	-0.300000	0.000000	0.000000	-0.000000	0.938758	509.238739	65.795517	0.209433	0.000000	-1.397680	0.000050	-1.803958	0.000002	-0.485727	452.785065	-61.315834	0.215462	0.000000	-0.967980	0.000026	1.510455	0.000001	-0.000000	-0.000000	0.000000	0.200000	0.000000	0.920000	0.000000	0.000000	-0.000000	-0.000000	-0.000000	0.000000	0.200000	0.000000	0.320000	0.000000	0.000000	-0.000000	
1.865000	-0.000000	-0.000000	0.000000	0.200000	0.000000	-0.300000	0.000000	0.000000	-0.000000	0.536490	509.715576	66.197189	0.209283	0.000000	-1.397549	0.000047	-1.864447	0.000002	-0.323912	452.146790	-61.315834	0.215322	0.000000	-0.968493	0.000041	1.491155	0.000002	-0.000000	-0.000000	0.000000	0.200000	0.000000	0.920000	0.000000	0.000000	-0.000000	-0.000000	-0.000000	0.000000	0.200000	0.000000	0.320000	0.000000	0.000000	-0.000000	
1.865500	-0.000000	-0.000000	0.000000	0.200000	0.000000	-0.300000	0.000000	0.000000	-0.000000	0.777800	509.398682	65.715416	0.209593	0.000000	-1.397914	0.000045	-1.801424	0.000007	-0.322367	451.504486	-61.073505	0.215520	0.000000	-0.968149	0.000031	1.593151	0.000005	-0.000000	-0.000000	0.000000	0.200000	0.000000	0.920000	0.000000	0.000000	-0.000000	-0.000000	-0.000000	0.000000	0.200000	0.000000	0.320000	0.000000	0.000000	-0.000000	
1.866000	-0.000000	-0.000000	0.000000	0.200000	0.000000	-0.300000	0.000000	0.000000	-0.000000	1.019110	509.081787	65.233643	0.209905	0.000000	-1.398278	-0.000003	-1.738303	0.000005	-0.320823	450.862183	-60.831177	0.215719	0.000000	-0.967805	0.000002	1.695085	0.000003	-0.000000	-0.000000	0.000000	0.200000	0.000000	0.920000	0.000000	0.000000	-0.000000	-0.000000	-0.000000	0.000000	0.200000	0.000000	0.320000	0.000000	0.000000	-0.000000	
1.866500	-0.000000	-0.000000	0.000000	0.200000	0.000000	-0.300000	0.000000	0.000000	-0.000000	1.019364	508.603943	65.313911	0.209806	0.000000	-1.398106	-0.000008	-1.774303	0.000002	-0.159781	452.302551	-60.991711	0.215654	0.000000	-0.967397	0.000025	1.669699	0.000007	-0.000000	-0.000000	0.000000	0.200000	0.000000	0.920000	0.000000	0.000000	-0.000000	-0.000000	-0.000000	0.000000	0.200000	0.000000	0.320000	0.000000	0.000000	-0.000000	
1.867000	-0.000000	-0.000000	0.000000	0.200000	0.000000	-0.300000	0.000000	0.000000	-0.000000	1.019619	508.126099	65.394180	0.209708	0.000000	-1.397933	0.000039	-1.810276	0.000011	0.001262	453.742889	-61.152245	0.215589	0.000000	-0.966992	0.000030	1.644448	0.000006	-0.000000	-0.000000	0.000000	0.200000	0.000000	0.920000	0.000000	0.000000	-0.000000	-0.000000	-0.000000	0.000000	0.200000	0.000000	0.320000	0.000000	0.000000	-0.000000	
1.867500	-0.000000	-0.000000	0.000000	0.200000	0.000000	-0.300000	0.000000	0.000000	-0.000000	0.778309	508.444824	65.635323	0.209679	0.000000	-1.397849	0.000074	-1.841626	0.000008	-0.323140	452.463684	-61.312267	0.215507	0.000000	-0.967341	0.000016	1.669668	0.000005	-0.000000	-0.000000	0.000000	0.200000	0.000000	0.920000	0.000000	0.000000	-0.000000	-0.000000	-0.000000	0.000000	0.200000	0.000000	0.320000	0.000000	0.000000	-0.000000	
1.868000	-0.000000	-0.000000	0.000000	0.200000	0.000000	-0.300000	0.000000	0.000000	-0.000000	0.536999	508.763550	65.876465	0.209650	0.000000	-1.397766	-0.000002	-1.873004	0.000002	-0.647542	451.184448	-61.472290	0.215424	0.000000	-0.967692	0.000021	1.695063	0.000012	-0.000000	-0.000000	0.000000	0.200000	0.000000	0.920000	0.000000	0.000000	-0.000000	-0.000000	-0.000000	0.000000	0.200000	0.000000	0.320000	0.000000	0.000000	-0.000000	
1.868500	-0.000000	-0.000000	0.000000	0.200000	0.000000	-0.300000	0.000000	0.000000	-0.000000	0.616842	508.921997	65.876129	0.209490	0.000000	-1.398237	0.000052	-1.812690	0.000004	-0.485727	451.344238	-61.472801	0.215477	0.000000	-0.967735	0.000025	1.668194	0.000003	-0.000000	-0.000000	0.000000	0.200000	0.000000	0.920000	0.000000	0.000000	-0.000000	-0.000000	-0.000000	0.000000	0.200000	0.000000	0.320000	0.000000	0.000000	-0.000000	
